<?xml version="1.0" encoding="UTF-8" standalone="no"?>
<svg
   width="24"
   height="24"
   viewBox="0 0 24 24"
   fill="none"
   version="1.1"
   id="svg6"
   sodipodi:docname="extension-icon.svg"
   xml:space="preserve"
   inkscape:version="1.2.2 (b0a8486541, 2022-12-01)"
   inkscape:export-filename="extension-icon.png"
   inkscape:export-xdpi="512"
   inkscape:export-ydpi="512"
   xmlns:inkscape="http://www.inkscape.org/namespaces/inkscape"
   xmlns:sodipodi="http://sodipodi.sourceforge.net/DTD/sodipodi-0.dtd"
   xmlns:xlink="http://www.w3.org/1999/xlink"
   xmlns="http://www.w3.org/2000/svg"
   xmlns:svg="http://www.w3.org/2000/svg"><defs
     id="defs10"><linearGradient
       inkscape:collect="always"
       id="linearGradient4975"><stop
         style="stop-color:#9013fe;stop-opacity:1;"
         offset="0"
         id="stop4971" /><stop
         style="stop-color:#6a10f3;stop-opacity:1;"
         offset="1"
         id="stop4973" /></linearGradient><filter
       data-v-1441c2a0=""
       id="logo-shadow"
       filterUnits="objectBoundingBox"
       x="-0.097203728"
       y="-0.096774194"
       width="1.1810919"
       height="1.2319508"><feOffset
         data-v-1441c2a0=""
         in="SourceAlpha"
         dx="-10"
         dy="25"
         result="ALPHA1"
         id="feOffset222" /><feMorphology
         data-v-1441c2a0=""
         in="ALPHA1"
         operator="dilate"
         radius="15"
         result="ALPHA"
         id="feMorphology224" /><feGaussianBlur
         data-v-1441c2a0=""
         in="ALPHA"
         stdDeviation="20"
         result="DROP"
         id="feGaussianBlur226" /><feFlood
         data-v-1441c2a0=""
         in="DROP"
         flood-color="#333"
         result="SOLID"
         id="feFlood228" /><feComposite
         data-v-1441c2a0=""
         in="DROP"
         in2="SOLID"
         operator="in"
         result="SHADOW1"
         id="feComposite230" /><feComponentTransfer
         data-v-1441c2a0=""
         in="SHADOW1"
         result="SHADOW"
         id="feComponentTransfer234"><feFuncA
           data-v-1441c2a0=""
           type="linear"
           slope="0.55"
           id="feFuncA232" /></feComponentTransfer><feMerge
         data-v-1441c2a0=""
         id="feMerge240"><feMergeNode
           data-v-1441c2a0=""
           in="SHADOW"
           id="feMergeNode236" /><feMergeNode
           data-v-1441c2a0=""
           in="SourceGraphic"
           id="feMergeNode238" /></feMerge></filter><filter
       data-v-1441c2a0=""
       id="logo-shadow-5"
       filterUnits="objectBoundingBox"
       x="-0.097203728"
       y="-0.096774194"
       width="1.1810919"
       height="1.2319508"><feOffset
         data-v-1441c2a0=""
         in="SourceAlpha"
         dx="-10"
         dy="25"
         result="ALPHA1"
         id="feOffset222-3" /><feMorphology
         data-v-1441c2a0=""
         in="ALPHA1"
         operator="dilate"
         radius="15"
         result="ALPHA"
         id="feMorphology224-5" /><feGaussianBlur
         data-v-1441c2a0=""
         in="ALPHA"
         stdDeviation="20"
         result="DROP"
         id="feGaussianBlur226-6" /><feFlood
         data-v-1441c2a0=""
         in="DROP"
         flood-color="#333"
         result="SOLID"
         id="feFlood228-2" /><feComposite
         data-v-1441c2a0=""
         in="DROP"
         in2="SOLID"
         operator="in"
         result="SHADOW1"
         id="feComposite230-9" /><feComponentTransfer
         data-v-1441c2a0=""
         in="SHADOW1"
         result="SHADOW"
         id="feComponentTransfer234-1"><feFuncA
           data-v-1441c2a0=""
           type="linear"
           slope="0.55"
           id="feFuncA232-2" /></feComponentTransfer><feMerge
         data-v-1441c2a0=""
         id="feMerge240-7"><feMergeNode
           data-v-1441c2a0=""
           in="SHADOW"
           id="feMergeNode236-0" /><feMergeNode
           data-v-1441c2a0=""
           in="SourceGraphic"
           id="feMergeNode238-9" /></feMerge></filter><filter
       data-v-1441c2a0=""
       id="filter1916"
       filterUnits="objectBoundingBox"
       x="-0.097203732"
       y="-0.096774191"
       width="1.1810919"
       height="1.2319508"><feOffset
         data-v-1441c2a0=""
         in="SourceAlpha"
         dx="-10"
         dy="25"
         result="ALPHA1"
         id="feOffset1896" /><feMorphology
         data-v-1441c2a0=""
         in="ALPHA1"
         operator="dilate"
         radius="15"
         result="ALPHA"
         id="feMorphology1898" /><feGaussianBlur
         data-v-1441c2a0=""
         in="ALPHA"
         stdDeviation="20"
         result="DROP"
         id="feGaussianBlur1900" /><feFlood
         data-v-1441c2a0=""
         in="DROP"
         flood-color="#333"
         result="SOLID"
         id="feFlood1902" /><feComposite
         data-v-1441c2a0=""
         in="DROP"
         in2="SOLID"
         operator="in"
         result="SHADOW1"
         id="feComposite1904" /><feComponentTransfer
         data-v-1441c2a0=""
         in="SHADOW1"
         result="SHADOW"
         id="feComponentTransfer1908"><feFuncA
           data-v-1441c2a0=""
           type="linear"
           slope="0.55"
           id="feFuncA1906" /></feComponentTransfer><feMerge
         data-v-1441c2a0=""
         id="feMerge1914"><feMergeNode
           data-v-1441c2a0=""
           in="SHADOW"
           id="feMergeNode1910" /><feMergeNode
           data-v-1441c2a0=""
           in="SourceGraphic"
           id="feMergeNode1912" /></feMerge></filter><filter
       data-v-1441c2a0=""
       id="filter1938"
       filterUnits="objectBoundingBox"
       x="-0.097203732"
       y="-0.096774191"
       width="1.1810919"
       height="1.2319508"><feOffset
         data-v-1441c2a0=""
         in="SourceAlpha"
         dx="-10"
         dy="25"
         result="ALPHA1"
         id="feOffset1918" /><feMorphology
         data-v-1441c2a0=""
         in="ALPHA1"
         operator="dilate"
         radius="15"
         result="ALPHA"
         id="feMorphology1920" /><feGaussianBlur
         data-v-1441c2a0=""
         in="ALPHA"
         stdDeviation="20"
         result="DROP"
         id="feGaussianBlur1922" /><feFlood
         data-v-1441c2a0=""
         in="DROP"
         flood-color="#333"
         result="SOLID"
         id="feFlood1924" /><feComposite
         data-v-1441c2a0=""
         in="DROP"
         in2="SOLID"
         operator="in"
         result="SHADOW1"
         id="feComposite1926" /><feComponentTransfer
         data-v-1441c2a0=""
         in="SHADOW1"
         result="SHADOW"
         id="feComponentTransfer1930"><feFuncA
           data-v-1441c2a0=""
           type="linear"
           slope="0.55"
           id="feFuncA1928" /></feComponentTransfer><feMerge
         data-v-1441c2a0=""
         id="feMerge1936"><feMergeNode
           data-v-1441c2a0=""
           in="SHADOW"
           id="feMergeNode1932" /><feMergeNode
           data-v-1441c2a0=""
           in="SourceGraphic"
           id="feMergeNode1934" /></feMerge></filter><linearGradient
       id="a"
       x1="76.079"
       x2="523.48"
       y1="10.798"
       y2="365.95"
       gradientTransform="matrix(0.24566,0,0,0.24566,1.11,14.613)"
       gradientUnits="userSpaceOnUse"><stop
         offset="0"
         stop-color="#9013fe"
         id="stop3619" /><stop
         offset="1"
         stop-color="#6610f2"
         id="stop3621" /></linearGradient><linearGradient
       id="b"
       x1="193.51"
       x2="293.51"
       y1="109.74"
       y2="278.87"
       gradientTransform="translate(0,52)"
       gradientUnits="userSpaceOnUse"><stop
         offset="0"
         stop-color="#fff"
         id="stop3624" /><stop
         offset="1"
         stop-color="#f1e5fc"
         id="stop3626" /></linearGradient><filter
       id="c"
       width="197"
       height="249"
       x="161.9"
       y="135.46"
       color-interpolation-filters="sRGB"
       filterUnits="userSpaceOnUse"><feFlood
         flood-opacity="0"
         result="BackgroundImageFix"
         id="feFlood3629" /><feColorMatrix
         in="SourceAlpha"
         values="0 0 0 0 0 0 0 0 0 0 0 0 0 0 0 0 0 0 127 0"
         id="feColorMatrix3631" /><feOffset
         dy="4"
         id="feOffset3633" /><feGaussianBlur
         stdDeviation="8"
         id="feGaussianBlur3635" /><feColorMatrix
         values="0 0 0 0 0 0 0 0 0 0 0 0 0 0 0 0 0 0 0.15 0"
         id="feColorMatrix3637" /><feBlend
         in2="BackgroundImageFix"
         result="effect1_dropShadow"
         id="feBlend3639" /><feBlend
         in="SourceGraphic"
         in2="effect1_dropShadow"
         result="shape"
         id="feBlend3641" /></filter><linearGradient
       inkscape:collect="always"
       xlink:href="#linearGradient4975"
       id="linearGradient4977"
       x1="219"
       y1="526"
       x2="981"
       y2="526"
       gradientUnits="userSpaceOnUse" /></defs><sodipodi:namedview
     id="namedview8"
     pagecolor="#ffffff"
     bordercolor="#000000"
     borderopacity="0.25"
     inkscape:showpageshadow="2"
     inkscape:pageopacity="0.0"
     inkscape:pagecheckerboard="0"
     inkscape:deskcolor="#d1d1d1"
     showgrid="false"
     inkscape:zoom="12.344906"
     inkscape:cx="16.93006"
     inkscape:cy="8.3435224"
     inkscape:window-width="1920"
     inkscape:window-height="1012"
     inkscape:window-x="0"
     inkscape:window-y="0"
     inkscape:window-maximized="1"
     inkscape:current-layer="svg6" /><g
     id="g3617"
     transform="matrix(0.23438532,0,0,0.23438532,-22.499024,19.006666)"><g
       style="clip-rule:evenodd;fill-rule:evenodd;shape-rendering:geometricPrecision"
       id="g284-3"
       transform="matrix(0.1,0,0,0.1,87.719315,-93.501182)"><g
         data-v-1441c2a0=""
         id="g259-6"><g
           data-v-1441c2a0=""
           filter="url(#logo-shadow)"
           class="logo-dark-v"
           id="g247-0"
           style="filter:url(#logo-shadow-5)"><path
             data-v-1441c2a0=""
             fill="#34495e"
             d="M 747,311 602,562 458,311 H 227 L 602,962 978,311 Z"
             id="path245-6" /></g><g
           data-v-1441c2a0=""
           filter="url(#logo-shadow)"
           class="logo-purple-v"
           id="g253-2"
           style="filter:url(#logo-shadow-5)"><path
             data-v-1441c2a0=""
             fill="#563d7c"
             fill-rule="nonzero"
             d="M 219,195 H 981 L 599,857 Z"
             id="path249-6"
             style="fill:#f0db4f;fill-opacity:1" /></g><g
           data-v-1441c2a0=""
           filter="url(#logo-shadow)"
           class="logo-green-v"
           id="g257-8"
           style="filter:url(#logo-shadow-5)"><path
             data-v-1441c2a0=""
             fill="#41b883"
             d="M 839,357 600,771 361,357 H 202 l 398,690 398,-690 z"
             id="path255-7"
             style="fill:#14b8a6;fill-opacity:1" /></g></g></g><g
       id="g24"
       transform="matrix(0.05438842,0,0,0.05438842,53.212445,-21.515914)"><path
         d="m 2009.7914,-600.66544 c -6.2813,-39.15618 -31.8144,-72.03106 -107.4348,-102.70341 -26.2673,-12.07316 -55.5528,-20.71933 -64.2814,-40.62454 -3.0999,-11.58371 -3.5077,-18.1097 -1.5499,-25.12518 5.6287,-22.75953 32.7933,-29.85659 54.3292,-23.33056 13.8678,4.64979 27.0014,15.33699 34.9142,32.38543 37.0353,-23.98235 36.9537,-23.82002 62.8131,-40.29743 -9.4628,-14.68357 -14.5204,-21.45514 -20.7202,-27.73563 -22.27,-24.8805 -52.6161,-37.68783 -101.1534,-36.70893 -8.4023,1.06048 -16.8853,2.20172 -25.2884,3.26302 -24.2271,6.11815 -47.3137,18.84391 -60.8552,35.89317 -40.6246,46.09009 -29.0409,126.7673 20.3938,159.9693 48.7005,36.54577 120.2421,44.86646 129.3786,79.04655 8.8917,41.84817 -30.7531,55.38887 -70.1549,50.57674 -29.0408,-6.03658 -45.1919,-20.80173 -62.6499,-47.64003 -32.1399,18.59919 -32.1399,18.59919 -65.1779,37.60625 7.8313,17.13084 16.0695,24.8805 29.204,39.72722 62.1604,63.05777 217.7239,59.95791 245.6235,-35.48529 1.1412,-3.26384 8.647,-25.12604 2.6096,-58.81668 z m -321.407,-259.08339 h -80.2702 c 0,69.33908 -0.3255,138.18867 -0.3255,207.52775 0,44.13228 2.2841,84.59368 -4.8945,96.99314 -11.7469,24.39022 -42.1745,21.37275 -56.0423,16.64056 -14.1126,-6.93391 -21.2912,-16.80453 -29.6119,-30.75311 -2.2841,-3.99719 -3.9972,-7.09706 -4.569,-7.34178 -21.7798,13.29679 -43.4797,26.67433 -65.2603,39.97194 10.8503,22.27008 26.8383,41.60345 47.3137,54.16524 30.5908,18.35446 71.7048,23.98317 114.6958,14.11254 27.9804,-8.15754 52.1259,-25.04283 64.77,-50.73907 18.2729,-33.69064 14.3573,-74.47833 14.1942,-119.58952 0.4078,-73.581 0,-147.16196 0,-220.98769 z"
         fill="#323330"
         id="path14-9"
         style="stroke-width:0.815754" /></g></g><g
     style="clip-rule:evenodd;fill-rule:evenodd;shape-rendering:geometricPrecision"
     id="g284"
     transform="matrix(0.02343817,0,0,0.02343817,27.659759,-2.9085911)"><g
       data-v-1441c2a0=""
       id="g259"><g
         data-v-1441c2a0=""
         filter="url(#logo-shadow)"
         class="logo-dark-v"
         id="g247"><path
           data-v-1441c2a0=""
           fill="#34495e"
           d="M 747,311 602,562 458,311 H 227 L 602,962 978,311 Z"
           id="path245" /></g><g
         data-v-1441c2a0=""
         filter="url(#logo-shadow)"
         class="logo-purple-v"
         id="g253"><path
           data-v-1441c2a0=""
           fill="#563d7c"
           fill-rule="nonzero"
           d="M 219,195 H 981 L 599,857 Z"
           id="path249"
           style="fill:url(#linearGradient4977);fill-opacity:1" /><path
           data-v-1441c2a0=""
           fill="#ffffff"
           d="m 509.73787,249.49009 h 105.90756 c 20.05825,0 35.30252,4.01165 47.33747,12.83728 12.03496,9.62796 17.65127,22.46524 17.65127,40.91883 0,11.23262 -2.407,20.86058 -8.02331,28.08155 -5.6163,8.02331 -12.83728,14.44194 -23.26757,18.45359 v 0.80233 c 13.63961,2.407 24.0699,8.82563 30.48854,19.25592 7.22097,9.62796 10.4303,21.66292 10.4303,36.90719 0,8.82562 -1.60467,16.84892 -4.81399,24.06989 -2.40699,7.22098 -7.22097,13.63961 -13.63961,19.25592 -7.22097,4.81398 -15.24427,9.62796 -25.67456,12.83729 -9.62796,3.20931 -22.46524,4.81397 -36.10485,4.81397 H 509.73787 Z m 38.51184,91.46562 h 61.77941 c 9.62796,0 16.84893,-3.20932 23.26757,-8.0233 6.41864,-5.61631 8.82564,-12.83727 8.82564,-22.46524 0,-11.23262 -2.407,-19.25592 -8.02331,-23.26756 -5.6163,-4.81399 -13.63961,-7.22098 -24.0699,-7.22098 h -61.77941 z m 0,95.47727 h 67.39572 c 11.23262,0 20.86058,-3.20932 26.4769,-8.82563 6.41863,-6.41864 10.43028,-15.24427 10.43028,-25.67456 0,-11.23262 -3.20932,-19.25592 -10.43028,-24.87223 -6.41865,-6.41864 -15.24428,-8.82562 -26.4769,-8.82562 h -67.39572 z"
           class="logo-white-b"
           id="path251"
           style="stroke-width:0.80233" /></g><g
         data-v-1441c2a0=""
         filter="url(#logo-shadow)"
         class="logo-green-v"
         id="g257"><path
           data-v-1441c2a0=""
           fill="#41b883"
           d="M 839,357 600,771 361,357 H 202 l 398,690 398,-690 z"
           id="path255"
           style="fill:#14b8a6;fill-opacity:1" /></g></g></g></svg>
